<svg id="visual" viewBox="0 0 1080 720" width="1080" height="720" xmlns="http://www.w3.org/2000/svg" xmlns:xlink="http://www.w3.org/1999/xlink" version="1.1"><rect x="0" y="0" width="1080" height="720" fill="#ffffff"></rect><defs><linearGradient id="grad1_0" x1="33.3%" y1="100%" x2="100%" y2="0%"><stop offset="20%" stop-color="#8bc6ec" stop-opacity="1"></stop><stop offset="80%" stop-color="#8bc6ec" stop-opacity="1"></stop></linearGradient></defs><defs><linearGradient id="grad1_1" x1="33.3%" y1="100%" x2="100%" y2="0%"><stop offset="20%" stop-color="#8bc6ec" stop-opacity="1"></stop><stop offset="80%" stop-color="#c8e2f6" stop-opacity="1"></stop></linearGradient></defs><defs><linearGradient id="grad1_2" x1="33.3%" y1="100%" x2="100%" y2="0%"><stop offset="20%" stop-color="#ffffff" stop-opacity="1"></stop><stop offset="80%" stop-color="#c8e2f6" stop-opacity="1"></stop></linearGradient></defs><defs><linearGradient id="grad2_0" x1="0%" y1="100%" x2="66.7%" y2="0%"><stop offset="20%" stop-color="#8bc6ec" stop-opacity="1"></stop><stop offset="80%" stop-color="#8bc6ec" stop-opacity="1"></stop></linearGradient></defs><defs><linearGradient id="grad2_1" x1="0%" y1="100%" x2="66.7%" y2="0%"><stop offset="20%" stop-color="#c8e2f6" stop-opacity="1"></stop><stop offset="80%" stop-color="#8bc6ec" stop-opacity="1"></stop></linearGradient></defs><defs><linearGradient id="grad2_2" x1="0%" y1="100%" x2="66.7%" y2="0%"><stop offset="20%" stop-color="#c8e2f6" stop-opacity="1"></stop><stop offset="80%" stop-color="#ffffff" stop-opacity="1"></stop></linearGradient></defs><g transform="translate(1080, 720)"><path d="M-454.3 0C-414.7 -35.2 -375.1 -70.3 -368.1 -119.6C-361 -168.9 -386.4 -232.3 -367.5 -267C-348.6 -301.8 -285.4 -307.9 -242.2 -333.3C-199 -358.8 -175.8 -403.6 -138.7 -427C-101.7 -450.4 -50.9 -452.4 0 -454.3L0 0Z" fill="#e4f1fa"></path><path d="M-302.9 0C-276.5 -23.4 -250.1 -46.9 -245.4 -79.7C-240.7 -112.6 -257.6 -154.9 -245 -178C-232.4 -201.2 -190.3 -205.2 -161.4 -222.2C-132.6 -239.2 -117.2 -269.1 -92.5 -284.7C-67.8 -300.3 -33.9 -301.6 0 -302.9L0 0Z" fill="#aad4f1"></path><path d="M-151.4 0C-138.2 -11.7 -125 -23.4 -122.7 -39.9C-120.3 -56.3 -128.8 -77.4 -122.5 -89C-116.2 -100.6 -95.1 -102.6 -80.7 -111.1C-66.3 -119.6 -58.6 -134.5 -46.2 -142.3C-33.9 -150.1 -17 -150.8 0 -151.4L0 0Z" fill="#8bc6ec"></path></g><g transform="translate(0, 0)"><path d="M454.3 0C422.1 40.2 389.8 80.3 368.1 119.6C346.3 158.9 335 197.2 313.1 227.5C291.2 257.7 258.7 279.9 230.4 317.1C202.1 354.4 178.1 406.7 140.4 432.1C102.7 457.4 51.3 455.9 0 454.3L0 0Z" fill="#e4f1fa"></path><path d="M302.9 0C281.4 26.8 259.9 53.6 245.4 79.7C230.9 105.9 223.3 131.5 208.7 151.6C194.1 171.8 172.5 186.6 153.6 211.4C134.8 236.2 118.7 271.1 93.6 288C68.5 305 34.2 303.9 0 302.9L0 0Z" fill="#aad4f1"></path><path d="M151.4 0C140.7 13.4 129.9 26.8 122.7 39.9C115.4 53 111.7 65.7 104.4 75.8C97.1 85.9 86.2 93.3 76.8 105.7C67.4 118.1 59.4 135.6 46.8 144C34.2 152.5 17.1 152 0 151.4L0 0Z" fill="#8bc6ec"></path></g></svg>